<svg data-name="Calque 1" xmlns="http://www.w3.org/2000/svg" viewBox="0 0 48 48"><path d="M40.2 25.09a1.54 1.54 0 00-.09.19 3.56 3.56 0 01-3.45 2.44 5.42 5.42 0 01-1.7-.19 3.62 3.62 0 01-2.56-3.46 5.19 5.19 0 01.21-1.88 3.62 3.62 0 013.29-2.55 4.82 4.82 0 012 .22A3.5 3.5 0 0140.05 22l.14.34.1-.24a3.65 3.65 0 013.36-2.42 5 5 0 011.76.19 3.62 3.62 0 012.53 3.1 5 5 0 01-.14 2.17 3.61 3.61 0 01-3.51 2.64 5.72 5.72 0 01-1.54-.16 3.39 3.39 0 01-2.44-2.19 2.24 2.24 0 01-.11-.34zm5.8-1.38a12.48 12.48 0 00-.37-1.49 1.57 1.57 0 00-1.59-1 1.6 1.6 0 00-1.6 1 3.71 3.71 0 000 3 1.57 1.57 0 001.58 1 1.55 1.55 0 001.58-1 12.06 12.06 0 00.4-1.51zm-11.5-.11c0 .38.05.69.11 1a1.76 1.76 0 001.75 1.59 1.72 1.72 0 001.8-1.42 4.17 4.17 0 000-2.27 1.71 1.71 0 00-1.73-1.29 1.67 1.67 0 00-1.69 1.28 8.88 8.88 0 00-.27 1.11z" fill="#c30040"/><path d="M8.52 26.56v3.92H7.28v-.31-10c0-.26.06-.37.33-.35s.65-.07.83.07.06.51.08.79a1.9 1.9 0 000 .21 2.19 2.19 0 011.58-1.14 3.41 3.41 0 014.32 2.84 5.14 5.14 0 01-.27 3.1 3.08 3.08 0 01-2.85 2 3.28 3.28 0 01-2-.47 8.84 8.84 0 01-.78-.66zm2.37.07a2 2 0 002-1.29 4.17 4.17 0 00.16-2.87 2.25 2.25 0 00-2.27-1.73 2.22 2.22 0 00-2.19 1.77 4.64 4.64 0 00-.1 2 2.34 2.34 0 002.4 2.12zM20.22 26.54a3.17 3.17 0 01-2 1.11 4.13 4.13 0 01-1.88-.13A1.84 1.84 0 0115 25.77a2.06 2.06 0 011.76-2.37c.75-.18 1.51-.28 2.26-.42l.42-.1c.36-.11.7-.27.74-.7a1.14 1.14 0 00-.53-1.18 3 3 0 00-2.65.13 1.24 1.24 0 00-.46.83 2.4 2.4 0 010 .24h-1.25a2.35 2.35 0 01.94-1.92 3.17 3.17 0 011.46-.55 6 6 0 012.12.06 1.84 1.84 0 011.59 2v4.29c0 .5.09.56.58.53h.18v.78c0 .07-.1.19-.16.19a4.53 4.53 0 01-1.1 0 .75.75 0 01-.6-.58c-.02-.14-.05-.28-.08-.46zm-.07-3a10.31 10.31 0 01-2.32.49 3.51 3.51 0 00-1 .38 1.13 1.13 0 00-.48 1.26 1 1 0 00.85.83 4.12 4.12 0 001.11.06 2 2 0 001.87-1.51 10.84 10.84 0 00-.03-1.47z" fill="#58585a"/><path d="M32 27.55a6.76 6.76 0 01-2.29 0 1.5 1.5 0 01-1.33-1.62V21a6.05 6.05 0 01-.61 0c-.07 0-.2-.1-.2-.16v-1.19h.59c.18 0 .24-.06.23-.23v-1.9h2.08v2.1H32V21h-1.5v4c0 .86.17 1 1 1h.5z" fill="#c30040"/><path d="M0 25.17h1.16a1.85 1.85 0 002.18 1.46 5 5 0 001.15-.2 1 1 0 00.7-.92.88.88 0 00-.6-.93C4 24.36 3.3 24.19 2.65 24c-.44-.14-.9-.24-1.32-.41A1.76 1.76 0 01.14 22a1.93 1.93 0 011.07-1.92A3.24 3.24 0 013 19.67a6.38 6.38 0 011.74.27A2 2 0 016.11 22H5a1.61 1.61 0 00-1.87-1.24 4.14 4.14 0 00-1 .19.81.81 0 00-.57.72.74.74 0 00.45.8 12.47 12.47 0 001.34.53c.47.14.95.23 1.42.36a2.54 2.54 0 01.46.17 1.83 1.83 0 011.26 1.72 2.07 2.07 0 01-1 2 3.36 3.36 0 01-1.49.4 5.66 5.66 0 01-2.28-.15A2.34 2.34 0 010 25.17zM24.15 21.45a2.79 2.79 0 012.79-1.79v1.28c-.25 0-.5 0-.75.1a2.22 2.22 0 00-1.93 2 11.33 11.33 0 00-.11 1.43v2.79c0 .24-.07.33-.31.31h-.63c-.22 0-.28-.08-.28-.29v-2.53-4.49c0-.39 0-.39.37-.39.77 0 .77 0 .77.75v.81z" fill="#58585a"/></svg>