<svg xmlns="http://www.w3.org/2000/svg" xmlns:xlink="http://www.w3.org/1999/xlink" viewBox="0 0 32 32"><defs><path id="a" d="M0 .111h4.367v5.372H0z"/></defs><g fill="none" fill-rule="evenodd"><g transform="translate(0 13.312)"><mask id="b" fill="#fff"><use xlink:href="#a"/></mask><path fill="#575756" d="M.98 4.22a.9.9 0 0 0 .3.31c.14.08.28.13.45.17a2.5 2.5 0 0 0 1.32-.1.76.76 0 0 0 .3-.23.6.6 0 0 0 .12-.39.56.56 0 0 0-.25-.5c-.16-.1-.37-.2-.62-.27s-.52-.13-.8-.19a4.2 4.2 0 0 1-.82-.24c-.25-.1-.46-.24-.62-.43a1.13 1.13 0 0 1-.25-.78c0-.26.06-.48.17-.66C.4.72.55.57.73.45c.18-.11.39-.2.62-.26A4.1 4.1 0 0 1 2.84.18c.24.06.46.14.65.26.19.13.34.3.45.5.11.21.18.47.2.78h-.85a.85.85 0 0 0-.13-.41.85.85 0 0 0-.27-.26A1.27 1.27 0 0 0 2.5.9a1.9 1.9 0 0 0-.8-.01 1.4 1.4 0 0 0-.35.1.86.86 0 0 0-.26.2.5.5 0 0 0-.1.32c0 .15.06.27.16.37.1.1.23.17.4.24.15.06.33.11.53.15a59.43 59.43 0 0 1 1.22.3c.2.07.38.16.54.27a1.21 1.21 0 0 1 .52 1.03c0 .31-.07.57-.2.78-.13.2-.3.37-.5.5-.21.12-.45.2-.71.26a4.17 4.17 0 0 1-1.6-.02 2 2 0 0 1-.68-.29 1.5 1.5 0 0 1-.48-.54 1.78 1.78 0 0 1-.2-.8h.85c0 .18.05.34.13.46" mask="url(#b)"/></g><path fill="#575756" d="M8.75 15.37a1.9 1.9 0 0 0-.29-.61 1.4 1.4 0 0 0-1.2-.6 1.49 1.49 0 0 0-1.22.62c-.12.18-.22.39-.27.62a2.95 2.95 0 0 0 0 1.44c.06.24.16.44.29.62a1.44 1.44 0 0 0 1.25.6c.29 0 .53-.06.73-.17.2-.11.35-.26.47-.45.12-.18.2-.4.26-.64.05-.23.08-.48.08-.73 0-.24-.03-.47-.1-.7zm-3.04-1.83v.7h.02c.14-.29.36-.5.66-.62.3-.13.63-.2.98-.2a2.11 2.11 0 0 1 1.78.81c.2.25.34.54.44.86a3.63 3.63 0 0 1 0 2.07 2.2 2.2 0 0 1-1.17 1.43 2.39 2.39 0 0 1-1.45.16 2.32 2.32 0 0 1-.46-.12c-.15-.06-.3-.15-.43-.25-.14-.1-.25-.23-.35-.38h-.02v2.64h-.84v-7.1h.84zm7.33 2.66l-.54.1-.58.07a1.9 1.9 0 0 0-.51.15.93.93 0 0 0-.38.28.79.79 0 0 0-.14.5c0 .14.03.26.08.36.06.1.13.17.22.23.1.06.2.1.32.13s.25.04.37.04a2 2 0 0 0 .72-.12c.2-.07.36-.17.49-.28.12-.12.22-.25.28-.38a.96.96 0 0 0 .09-.39v-.86a1 1 0 0 1-.42.17m1.18 2.6a.73.73 0 0 1-.52-.19c-.13-.12-.2-.32-.2-.6a2 2 0 0 1-.8.6 2.68 2.68 0 0 1-1.66.1c-.2-.04-.39-.12-.54-.24a1.2 1.2 0 0 1-.37-.45c-.1-.18-.14-.4-.14-.66 0-.29.05-.53.15-.71.1-.19.23-.34.4-.46a2 2 0 0 1 .55-.26 6.85 6.85 0 0 1 1.3-.25c.22-.03.4-.06.56-.1a.98.98 0 0 0 .38-.2c.09-.08.14-.2.14-.36a.84.84 0 0 0-.1-.44.71.71 0 0 0-.28-.26 1 1 0 0 0-.37-.12 2.76 2.76 0 0 0-.4-.03c-.36 0-.66.07-.9.2-.23.14-.36.4-.38.77h-.85c.02-.31.08-.58.2-.8.12-.22.28-.4.48-.53.2-.14.43-.24.69-.3a4.9 4.9 0 0 1 1.5-.04c.23.04.44.1.63.2.18.1.33.25.44.44.12.18.17.43.17.72v2.65c0 .2.01.35.04.44.02.1.1.14.23.14.07 0 .16-.02.26-.05v.65a1.2 1.2 0 0 1-.6.13m1.85-5.25v1.09h.02c.2-.42.46-.73.76-.93.3-.2.67-.3 1.13-.28v.9c-.34 0-.62.04-.86.14-.24.09-.43.23-.58.4-.15.18-.25.4-.32.66-.06.25-.1.55-.1.88v2.29h-.84v-5.15h.8z"/><path fill="#C3043F" d="M21.39 13.4v.92h-1.04v2.71c0 .24.04.4.12.48.08.08.24.12.48.12a2.51 2.51 0 0 0 .44-.04v1.1l-.4.04h-.43c-.22 0-.42-.01-.62-.04s-.37-.09-.52-.17a.92.92 0 0 1-.35-.37 1.32 1.32 0 0 1-.13-.63v-3.2h-.54v-.91h.54V12h1.41v1.4h1.04zm1.68 3.32c.04.2.1.37.2.53.1.15.22.28.38.37.16.1.36.14.6.14s.44-.05.6-.14c.16-.1.3-.22.39-.37.1-.16.16-.33.2-.53a3.04 3.04 0 0 0 0-1.2c-.04-.2-.1-.38-.2-.54a1.11 1.11 0 0 0-.99-.51c-.24 0-.44.05-.6.14-.16.1-.28.22-.38.37-.1.16-.16.33-.2.53a3.06 3.06 0 0 0 0 1.21M21.78 15a2.4 2.4 0 0 1 1.38-1.4 3 3 0 0 1 2.19 0 2.4 2.4 0 0 1 1.38 1.4 3.24 3.24 0 0 1-.01 2.23 2.33 2.33 0 0 1-1.38 1.4c-.32.12-.68.18-1.09.18-.4 0-.77-.06-1.1-.18a2.34 2.34 0 0 1-1.37-1.4 3.23 3.23 0 0 1 .01-2.23"/><path fill="#C3043F" d="M28.15 16.73c.04.2.1.37.2.52.1.16.23.28.39.38.16.09.36.13.6.13.23 0 .43-.04.6-.13.16-.1.29-.22.38-.38.1-.15.17-.33.2-.52a3.05 3.05 0 0 0 0-1.21 1.3 1.3 0 0 0-.2-.53c-.1-.15-.22-.28-.38-.37-.17-.1-.37-.15-.6-.15-.25 0-.44.05-.6.15-.16.1-.29.22-.39.37-.1.15-.16.33-.2.53a3.06 3.06 0 0 0 0 1.2M26.87 15a2.4 2.4 0 0 1 1.37-1.4c.32-.13.69-.2 1.1-.2a3 3 0 0 1 1.1.2A2.4 2.4 0 0 1 31.8 15c.13.34.19.71.19 1.12 0 .41-.06.79-.19 1.12a2.33 2.33 0 0 1-1.38 1.4c-.32.12-.7.18-1.1.18a3 3 0 0 1-1.09-.19 2.34 2.34 0 0 1-1.37-1.4 3.16 3.16 0 0 1 0-2.23"/></g></svg>